# AST/ASF file generated using VICON BodyLanguage
# -----------------------------------------------
:version 1.10
:name VICON
:units
  mass 1.0
  length 0.45
  angle deg
:documentation
   .ast/.asf automatically generated from VICON data using
   VICON BodyBuilder and BodyLanguage model FoxedUp or BRILLIANT.MOD
:root
   order TX TY TZ RX RY RZ
   axis XYZ
   position 0 0 0  
   orientation 0 0 0 
:bonedata
  begin
     id 1 
     name lhipjoint
     direction 0.611804 -0.747784 0.257906 
     length 2.29243 
     axis 0 0 0  XYZ
  end
  begin
     id 2 
     name lfemur
     direction 0.34202 -0.939693 0  
     length 7.31159  
     axis 0 0 20  XYZ
    dof rx ry rz
    limits (-160.0 20.0)
           (-70.0 70.0)
           (-60.0 70.0)
  end
  begin
     id 3 
     name ltibia
     direction 0.34202 -0.939693 0   
     length 7.33391   
     axis 0 0 20   XYZ
    dof rx
    limits (-10.0 170.0)
  end
  begin
     id 4 
     name lfoot
     direction 0.122263 -0.335914 0.933924   
     length 1.76083   
     axis -90 7.62852e-016 20   XYZ
    dof rx rz
    limits (-45.0 90.0)
           (-70.0 20.0)
  end
  begin
     id 5 
     name ltoes
     direction 1.53533e-011 -4.2177e-011 1   
     length 0.879206   
     axis -90 7.62852e-016 20   XYZ
    dof rx
    limits (-90.0 20.0)
  end
  begin
     id 6 
     name rhipjoint
     direction -0.646469 -0.721248 0.248754   
     length 2.37677  
     axis 0 0 0  XYZ 
  end
  begin
     id 7 
     name rfemur
     direction -0.34202 -0.939693 0   
     length 7.18623   
     axis 0 0 -20   XYZ
    dof rx ry rz
    limits (-160.0 20.0)
           (-70.0 70.0)
           (-70.0 60.0)
  end
  begin
     id 8 
     name rtibia
     direction -0.34202 -0.939693 0   
     length 7.36567   
     axis 0 0 -20   XYZ
    dof rx
    limits (-10.0 170.0)
 end
 begin
     id 9 
     name rfoot
     direction -0.126681 -0.348054 0.928876   
     length 1.71902  
     axis -90 -7.62852e-016 -20   XYZ
    dof rx rz
    limits (-45.0 90.0)
           (-20.0 70.0)
  end
  begin
     id 10 
     name rtoes
     direction -1.53551e-011 -4.21898e-011 1   
     length 0.857792   
     axis -90 -7.62852e-016 -20   XYZ
    dof rx
    limits (-90.0 20.0)
  end
  begin
     id 11 
     name lowerback
     direction 0.0106509 0.999778 0.0181844   
     length 2.07668   
     axis 0 0 0   XYZ
    dof rx ry rz
    limits (-20.0 45.0)
           (-30.0 30.0)
           (-30.0 30.0)
  end
  begin
     id 12 
     name upperback
     direction -0.00456018 0.999989 -0.000590935   
     length 2.08011   
     axis 0 0 0   XYZ
    dof rx ry rz
    limits (-20.0 45.0)
           (-30.0 30.0)
           (-30.0 30.0)
  end
  begin
     id 13 
     name thorax
     direction -0.00910382 0.999916 -0.00923765   
     length 2.07397   
     axis 0 0 0   XYZ
    dof rx ry rz
    limits (-20.0 45.0)
           (-30.0 30.0)
           (-30.0 30.0)
  end
  begin
     id 14 
     name lowerneck
     direction 0.00171967 0.99778 0.0665733   
     length 1.67556   
     axis 0 0 0   XYZ
    dof rx ry rz
    limits (-20.0 45.0)
           (-30.0 30.0)
           (-30.0 30.0)
  end
  begin
     id 15 
     name upperneck
     direction -0.0143166 0.991302 -0.130828   
     length 1.68462   
     axis 0 0 0   XYZ
    dof rx ry rz
    limits (-20.0 45.0)
           (-30.0 30.0)
           (-30.0 30.0)
  end
  begin
     id 16
     name head
     direction -0.00606378 0.998665 -0.0512995  
     length 1.69269  
     axis 0 0 0   XYZ
    dof rx ry rz
    limits (-20.0 45.0)
           (-30.0 30.0)
           (-30.0 30.0)
  end
  begin
     id 17 
     name lclavicle
     direction 0.9638 0.179341 0.197297  
     length 4.12888  
     axis 0 0 0   XYZ
    dof ry rz
    limits (-20.0 10.0)
           (0.0 20.0)
  end
  begin
     id 18 
     name lhumerus
     direction 1 -4.48972e-011 -2.47351e-027   
     length 5.01834   
     axis -180 -30 -90   XYZ
    dof rx ry rz
    limits (-60.0 90.0)
           (-90.0 90.0)
           (-90.0 90.0)
  end
  begin
     id 19
     name lradius
     direction 1 -4.48965e-011 1.51591e-026   
     length 3.4869   
     axis -180 -30 -90   XYZ
    dof rx
    limits (-10.0 170.0)
  end
  begin
     id 20
     name lwrist
     direction 1 -4.48957e-011 2.70032e-026   
     length 1.74345   
     axis -1.81515e-014 90 90   XYZ
    dof ry
    limits (-180.0 0.0)
 end
  begin
     id 21 
     name lhand
     direction 1 -4.48951e-011 5.40064e-026   
     length 0.76799   
     axis -3.44607e-014 90 90   XYZ
    dof rx rz
    limits (-90.0 90.0)
           (-45.0 45.0)
  end
  begin
     id 22 
     name lfingers
     direction 1 -4.48971e-011 1.08013e-025   
     length 0.619174   
     axis -6.89214e-014 90 90   XYZ
    dof rx
    limits (0.0 90.0)
  end
  begin
     id 23
     name lthumb
     direction 0.707107 -6.34931e-011 0.707107   
     length 0.889013   
     axis -90 45 2.85299e-015   XYZ
    dof rx rz
    limits (-45.0 45.0)
           (-45.0 45.0)
  end
  begin
     id 24 
     name rclavicle
     direction -0.961409 0.252588 0.109054   
     length 4.04305  
     axis 0 0 0   XYZ 
    dof ry rz
    limits (-10.0 20.0)
           (-20.0 0.0)
  end
  begin
     id 25 
     name rhumerus
     direction -1 -4.4897e-011 1.33872e-017  
     length 4.70164   
     axis -180 30 90   XYZ
    dof rx ry rz
    limits (-90.0 60.0)
           (-90.0 90.0)
           (-90.0 90.0)
  end
  begin
     id 26 
     name rradius
     direction -1 -4.48954e-011 1.83844e-026   
     length 3.49911   
     axis -180 30 90   XYZ
    dof rx
    limits (-10.0 170.0)
  end
  begin
     id 27 
     name rwrist
     direction -1 -4.49008e-011 2.70032e-026   
     length 1.74955   
     axis -1.81515e-014 -90 -90   XYZ
    dof ry
    limits (-180.0 0.0)
  end
  begin
     id 28
     name rhand
     direction -1 -4.48916e-011 5.40064e-026   
     length 0.739335   
     axis -3.44607e-014 -90 -90   XYZ
    dof rx rz
    limits (-90.0 90.0)
           (-45.0 45.0)
  end
  begin
     id 29
     name rfingers
     direction -1 -4.48987e-011 1.08013e-025   
     length 0.596071   
     axis -6.89214e-014 -90 -90   XYZ
    dof rx
    limits (0.0 90.0)
  end
  begin
     id 30
     name rthumb
     direction -0.707107 -6.34935e-011 0.707107   
     length 0.855843   
     axis -90 -45 -2.85299e-015   XYZ
    dof rx rz
    limits (-45.0 45.0)
           (-45.0 45.0)
  end
:hierarchy
  begin
    root lhipjoint rhipjoint lowerback
    lhipjoint lfemur
    lfemur ltibia
    ltibia lfoot
    lfoot ltoes
    rhipjoint rfemur
    rfemur rtibia
    rtibia rfoot
    rfoot rtoes
    lowerback upperback
    upperback thorax
    thorax lowerneck lclavicle rclavicle
    lowerneck upperneck
    upperneck head
    lclavicle lhumerus
    lhumerus lradius
    lradius lwrist
    lwrist lhand lthumb
    lhand lfingers
    rclavicle rhumerus
    rhumerus rradius
    rradius rwrist
    rwrist rhand rthumb
    rhand rfingers
  end

#!OML:ASF I:\salsa\salsa 7_09\Patient 1\Session 1\dancermale.ASF
:FULLY-SPECIFIED
:DEGREES
701
root 1.333 13.723 -11.8932 191.604 170.967 189.355
lowerback 15.0732 3.10089 6.87585
upperback -0.773572 5.01626 -4.02385
thorax -8.3455 2.03164 -9.39139
lowerneck -9.32687 8.55295 6.12497
upperneck 14.5056 12.7893 -11.9421
head 7.15501 5.63268 -3.60929
rclavicle -3.08116e-014 -1.98785e-014
rhumerus -38.5231 28.2353 -107.49
rradius 64.4549
rwrist -5.06774
rhand -27.0727 -0.67873
rfingers 7.12502
rthumb -0.490306 -30.6579
lclavicle -3.08116e-014 -1.98785e-014
lhumerus -5.53154 -0.0798164 86.9705
lradius 108.758
lwrist 36.1049
lhand -38.5574 66.7609
lfingers 7.12502
lthumb -11.5769 983.579
rfemur -58.9564 -26.9012 -2.86688
rtibia 79.2628
rfoot -22.711 -25.5678
rtoes -6.85232
lfemur -35.7599 41.3368 3.89585
ltibia 53.6578
lfoot -13.7277 22.8445
ltoes -12.2606
702
root 1.48157 13.618 -11.9418 191.618 169.491 189.254
lowerback 14.9915 3.20125 7.14444
upperback -0.732782 5.18346 -4.16335
thorax -8.18415 2.11141 -9.72235
lowerneck -9.02167 8.63938 6.13159
upperneck 13.5251 12.9816 -12.9143
head 6.87798 5.70456 -3.91549
rclavicle 7.83212e-014 -1.03368e-014
rhumerus -38.0342 27.956 -109.158
rradius 63.5618
rwrist -5.44096
rhand -26.3734 0.203201
rfingers 7.12502
rthumb 0.185099 -29.7765
lclavicle 7.83212e-014 -1.03368e-014
lhumerus -5.15973 -4.3798 89.3305
lradius 109.82
lwrist 33.6762
lhand -39.0208 68.0616
lfingers 7.12502
lthumb -12.0237 982.304
rfemur -58.6224 -28.3119 -3.57915
rtibia 79.8478
rfoot -22.5529 -26.1375
rtoes -6.85477
lfemur -38.5757 42.0726 2.63057
ltibia 56.2018
lfoot -14.4744 22.6318
ltoes -14.98
703
root 1.61329 13.523 -11.9777 190.915 169.2 188.924
lowerback 15.7558 3.75739 6.6731
upperback -0.571596 5.88392 -4.08873
thorax -8.34144 2.46785 -9.56696
lowerneck -9.94059 8.76843 5.41331
upperneck 14.2483 13.3371 -12.8182
head 7.25546 5.78151 -3.68798
rclavicle -1.16687e-013 1.43125e-014
rhumerus -37.4368 27.7743 -110.473
rradius 62.5877
rwrist -5.69126
rhand -26.1998 1.53313
rfingers 7.12502
rthumb 0.352731 -28.4463
lclavicle -1.16687e-013 1.43125e-014
lhumerus -4.74209 -9.11234 91.7405
lradius 110.725
lwrist 31.2262
lhand -39.0467 69.9152
lfingers 7.12502
lthumb -12.0487 980.452
rfemur -58.0265 -28.1666 -4.24726
rtibia 80.3005
rfoot -22.404 -26.0085
rtoes -6.67235
lfemur -39.246 43.7317 2.72531
ltibia 58.2283
lfoot -14.9639 22.014
ltoes -19.1433
704
root 1.76084 13.4173 -12.0166 190.653 168.154 188.728
lowerback 15.9855 4.04748 6.15601
upperback -0.473749 6.19742 -3.90409
thorax -8.37246 2.64684 -9.14167
lowerneck -10.3482 8.60593 4.5546
upperneck 14.1548 13.3234 -13.2247
head 7.27273 5.69 -3.66852
rclavicle -2.64384e-014 8.74653e-015
rhumerus -36.9009 27.7935 -111.449
rradius 61.6626
rwrist -5.77684
rhand -25.9153 2.82861
rfingers 7.12502
rthumb 0.627595 -27.1502
lclavicle -2.64384e-014 8.74653e-015
lhumerus -4.35343 -14.1608 94.1875
lradius 111.464
lwrist 29.6838
lhand -40.1337 71.2374
lfingers 7.12502
lthumb -13.0966 979.194
rfemur -57.5195 -28.9378 -5.01354
rtibia 80.8464
rfoot -22.3254 -25.7529
rtoes -6.24487
lfemur -41.247 44.6411 1.9066
ltibia 60.3706
lfoot -15.3366 21.1553
ltoes -23.178
705
root 1.91446 13.3078 -12.0596 190.777 166.56 188.453
lowerback 15.8072 4.10829 5.94108
upperback -0.448146 6.2364 -3.81963
thorax -8.26845 2.68487 -8.90868
lowerneck -10.9121 8.34484 3.63455
upperneck 14.1465 13.1353 -13.2934
head 7.30006 5.52539 -3.54574
rclavicle 4.05521e-014 1.82882e-014
rhumerus -36.2352 27.7389 -112.289
rradius 60.8321
rwrist -5.73154
rhand -24.6915 3.80668
rfingers 7.12502
rthumb 1.80953 -26.1654
lclavicle 4.05521e-014 1.82882e-014
lhumerus -3.96171 -19.066 96.6419
lradius 111.986
lwrist 27.6057
lhand -40.349 72.0037
lfingers 7.12502
lthumb -13.3042 978.441
rfemur -57.1471 -30.2945 -5.61144
rtibia 81.4367
rfoot -22.5146 -25.5386
rtoes -6.33201
lfemur -44.3919 44.9655 0.478258
ltibia 62.6901
lfoot -15.7972 20.3678
ltoes -26.1488
706
root 2.0594 13.2016 -12.0969 190.683 165.455 187.973
lowerback 16.056 4.33158 5.6496
upperback -0.502195 6.48968 -3.82761
thorax -8.45083 2.80642 -8.83465
lowerneck -11.4432 7.9237 2.90778
upperneck 14.2095 12.6589 -13.1051
head 7.31366 5.24948 -3.4075
rclavicle -1.00585e-013 1.03368e-014
rhumerus -35.3465 27.105 -112.956
rradius 59.9566
rwrist -5.7425
rhand -24.8861 4.69896
rfingers 7.12502
rthumb 1.62161 -25.2746
lclavicle -1.00585e-013 1.03368e-014
lhumerus -3.83253 -23.988 99.1479
lradius 112.488
lwrist 25.1653
lhand -39.3627 73.3788
lfingers 7.12502
lthumb -12.3534 977.006
rfemur -56.7733 -30.9221 -6.04768
rtibia 81.9674
rfoot -22.9515 -25.2116
rtoes -6.0059
lfemur -46.8234 45.6278 -0.34996
ltibia 64.8809
lfoot -16.1454 19.8193
ltoes -28.5672
707
root 2.20196 13.0977 -12.1284 190.386 164.719 187.44
lowerback 16.721 4.65449 5.15909
upperback -0.623841 6.84868 -3.85433
thorax -8.94615 2.96431 -8.7524
lowerneck -11.7269 7.36213 2.344
upperneck 14.0808 11.9328 -12.9111
head 7.21378 4.88302 -3.33223
rclavicle -2.38542e-015 7.15625e-015
rhumerus -34.2291 25.8396 -113.372
rradius 58.9337
rwrist -5.75788
rhand -25.4532 5.68243
rfingers 7.12502
rthumb 1.07383 -24.2946
lclavicle -2.38542e-015 7.15625e-015
lhumerus -4.03653 -28.9044 101.639
lradius 112.973
lwrist 22.9667
lhand -39.2618 73.7524
lfingers 7.12502
lthumb -12.2561 976.627
rfemur -56.3329 -31.0254 -6.50535
rtibia 82.431
rfoot -23.0637 -24.8759
rtoes -6.86264
lfemur -48.5949 46.4479 -0.758924
ltibia 66.8631
lfoot -16.3577 19.3685
ltoes -30.4432
708
root 2.34997 12.9882 -12.1678 190.527 163.419 186.967
lowerback 17.0125 4.71383 4.8523
upperback -0.77719 6.86966 -3.94361
thorax -9.30112 2.95905 -8.73539
lowerneck -11.9888 6.70578 1.76449
upperneck 13.6788 11.0259 -12.6323
head 7.00728 4.44934 -3.24702
rclavicle -6.75868e-015 1.27222e-014
rhumerus -32.7804 24.1675 -113.414
rradius 57.9501
rwrist -5.74053
rhand -28.1004 4.89158
rfingers 7.12502
rthumb -1.48285 -25.083
lclavicle -6.75868e-015 1.27222e-014
lhumerus -4.30691 -34.0511 104.069
lradius 113.292
lwrist 22.2408
lhand -41.1137 73.4315
lfingers 7.12502
lthumb -14.0412 977.063
rfemur -56.0661 -31.7788 -6.91599
rtibia 82.8882
rfoot -22.6506 -24.5946
rtoes -9.57691
lfemur -51.5547 46.5305 -1.96955
ltibia 68.9572
lfoot -16.6476 18.7347
ltoes -31.8189
